<?xml version="1.0" encoding="UTF-8"?>
<svg width="47px" height="47px" viewBox="0 0 47 47" version="1.1" xmlns="http://www.w3.org/2000/svg" xmlns:xlink="http://www.w3.org/1999/xlink">
    <!-- Generator: sketchtool 52.6 (67491) - http://www.bohemiancoding.com/sketch -->
    <title>289B4A2F-DB30-4F15-87D9-E5D3D5333A73</title>
    <desc>Created with sketchtool.</desc>
    <g id="artist-copy" stroke="none" stroke-width="1" fill="none" fill-rule="evenodd">
        <g id="artist_main" transform="translate(-600.000000, -788.000000)">
            <g id="Group-15" transform="translate(600.000000, 788.000000)">
                <rect id="Rectangle-Copy-4" fill="#E43A9C" x="0" y="0" width="47" height="47" rx="23.5"></rect>
                <g id="Group-7" transform="translate(10.000000, 10.000000)" fill="#FFFFFF">
                    <path d="M24.46875,18.5625 C24.46875,21.819375 21.819375,24.46875 18.5625,24.46875 L8.4375,24.46875 C5.180625,24.46875 2.53125,21.819375 2.53125,18.5625 L2.53125,8.4375 C2.53125,5.180625 5.180625,2.53125 8.4375,2.53125 L18.5625,2.53125 C21.819375,2.53125 24.46875,5.180625 24.46875,8.4375 L24.46875,18.5625 Z M18.5625,0 L8.4375,0 C3.7783125,0 0,3.7783125 0,8.4375 L0,18.5625 C0,23.2216875 3.7783125,27 8.4375,27 L18.5625,27 C23.2216875,27 27,23.2216875 27,18.5625 L27,8.4375 C27,3.7783125 23.2216875,0 18.5625,0 Z" id="Fill-1"></path>
                    <path d="M13.5,17.8048469 C11.1271684,17.8048469 9.19515306,15.8728316 9.19515306,13.5 C9.19515306,11.1254464 11.1271684,9.19515306 13.5,9.19515306 C15.8728316,9.19515306 17.8048469,11.1254464 17.8048469,13.5 C17.8048469,15.8728316 15.8728316,17.8048469 13.5,17.8048469 M13.5,6.6122449 C9.69623724,6.6122449 6.6122449,9.69623724 6.6122449,13.5 C6.6122449,17.3037089 9.69623724,20.3877551 13.5,20.3877551 C17.3037628,20.3877551 20.3877551,17.3037089 20.3877551,13.5 C20.3877551,9.69623724 17.3037628,6.6122449 13.5,6.6122449" id="Fill-3"></path>
                    <path d="M20.6632411,5.51020408 C21.1197192,5.51020408 21.4897959,5.88024323 21.4897959,6.33673469 C21.4897959,6.79322616 21.1197192,7.16326531 20.6632411,7.16326531 C20.2068115,7.16326531 19.8367347,6.79322616 19.8367347,6.33673469 C19.8367347,5.88024323 20.2068115,5.51020408 20.6632411,5.51020408" id="Fill-5"></path>
                </g>
            </g>
        </g>
    </g>
</svg>