<?xml version="1.0" encoding="UTF-8"?>
<svg width="47px" height="47px" viewBox="0 0 47 47" version="1.1" xmlns="http://www.w3.org/2000/svg" xmlns:xlink="http://www.w3.org/1999/xlink">
    <!-- Generator: sketchtool 52.6 (67491) - http://www.bohemiancoding.com/sketch -->
    <title>7C00BE21-94D3-4DD3-9CB2-2BF6FDD6CEF8</title>
    <desc>Created with sketchtool.</desc>
    <defs>
        <polygon id="path-1" points="0 0 26 0 26 26 0 26"></polygon>
    </defs>
    <g id="artist-copy" stroke="none" stroke-width="1" fill="none" fill-rule="evenodd">
        <g id="artist_main" transform="translate(-665.000000, -788.000000)">
            <g id="Group-16" transform="translate(665.000000, 788.000000)">
                <rect id="Rectangle-Copy-3" fill="#2196F3" x="0" y="0" width="47" height="47" rx="23.5"></rect>
                <g id="Group-3" transform="translate(10.000000, 10.000000)">
                    <mask id="mask-2" fill="white">
                        <use xlink:href="#path-1"></use>
                    </mask>
                    <g id="Clip-2"></g>
                    <path d="M21.5106836,9.59229476 L15.0106836,16.0916627 C14.8105547,16.291823 14.4900234,16.3040601 14.2751172,16.1198436 L10.7673008,13.1138351 L5.13398437,16.1848373 C4.92369922,16.2988809 4.66354687,16.2615095 4.49388672,16.0928306 C4.28167187,15.8820073 4.28065625,15.5390641 4.49155078,15.3268699 L10.9915508,8.82755272 C11.1916797,8.62739249 11.5122109,8.6151554 11.7271172,8.79937186 L15.2316836,11.8042633 L20.865,8.73331188 C21.1016406,8.60434005 21.3971367,8.66897829 21.5582656,8.88498073 C21.7204102,9.09986608 21.7000469,9.40112194 21.5106836,9.59229476 M13,0.00252807986 C5.97416016,-0.1359897 0.160417969,5.43498418 0,12.4596331 C0.0183320313,16.0354534 1.60184375,19.4239598 4.33331641,21.7320478 L4.33331641,25.4583691 C4.33331641,25.7574923 4.57584766,26 4.875,26 C4.97651172,26 5.07599219,25.9714637 5.16206641,25.9176916 L8.18131641,24.0318086 C9.71958203,24.6201029 11.3530625,24.9200894 13,24.9167889 C20.0258398,25.0553067 25.839582,19.484282 26,12.4596839 C25.839582,5.43498418 20.0258398,-0.1359897 13,0.00252807986" id="Fill-1" fill="#FFFFFF" mask="url(#mask-2)"></path>
                </g>
            </g>
        </g>
    </g>
</svg>