<?xml version="1.0" encoding="UTF-8"?>
<svg width="47px" height="47px" viewBox="0 0 47 47" version="1.1" xmlns="http://www.w3.org/2000/svg" xmlns:xlink="http://www.w3.org/1999/xlink">
    <!-- Generator: sketchtool 52.6 (67491) - http://www.bohemiancoding.com/sketch -->
    <title>0E9A0570-E3C8-4DAE-9526-EC2AEF1A087E</title>
    <desc>Created with sketchtool.</desc>
    <g id="artist-copy" stroke="none" stroke-width="1" fill="none" fill-rule="evenodd">
        <g id="artist_main" transform="translate(-536.000000, -788.000000)">
            <g id="Group-14" transform="translate(536.000000, 788.000000)">
                <rect id="Rectangle-Copy-5" fill="#92DE5B" x="0" y="0" width="47" height="47" rx="23.5"></rect>
                <path d="M24,32.2260808 C23.0538845,32.2260808 22.1401702,32.1152039 21.2620466,31.9268763 L17.4484235,34.2340426 L17.4994555,30.4528662 C14.5761064,28.6829126 12.6595745,25.7577709 12.6595745,22.4428276 C12.6595745,17.0400261 17.736845,12.6595745 24,12.6595745 C30.2632056,12.6595745 35.3404255,17.0400261 35.3404255,22.4428276 C35.3404255,27.8455782 30.2632056,32.2260808 24,32.2260808 M24,11 C16.8208008,11 11,16.09275 11,22.375 C11,25.9654375 12.9053125,29.1617617 15.875,31.2466875 L15.875,37 L21.5698125,33.5444375 C22.3579883,33.6744883 23.1688125,33.75 24,33.75 C31.1801133,33.75 37,28.6573008 37,22.375 C37,16.09275 31.1801133,11 24,11" id="Fill-1" stroke="#FFFFFF" stroke-width="1.5" fill="#FFFFFF" stroke-linecap="round" stroke-linejoin="round"></path>
            </g>
        </g>
    </g>
</svg>