<?xml version="1.0" encoding="UTF-8"?>
<svg width="47px" height="47px" viewBox="0 0 47 47" version="1.1" xmlns="http://www.w3.org/2000/svg" xmlns:xlink="http://www.w3.org/1999/xlink">
    <!-- Generator: sketchtool 52.6 (67491) - http://www.bohemiancoding.com/sketch -->
    <title>4E14C904-3916-4308-8F57-0D0B299BA320</title>
    <desc>Created with sketchtool.</desc>
    <defs>
        <polygon id="path-1" points="0 0 26 0 26 21 0 21"></polygon>
    </defs>
    <g id="artist-copy" stroke="none" stroke-width="1" fill="none" fill-rule="evenodd">
        <g id="artist_main" transform="translate(-794.000000, -788.000000)">
            <g id="Group-17" transform="translate(794.000000, 788.000000)">
                <rect id="Rectangle-Copy" fill="#1BABDD" x="0" y="0" width="47" height="47" rx="23.5"></rect>
                <g id="Group-3" transform="translate(11.000000, 13.000000)">
                    <mask id="mask-2" fill="white">
                        <use xlink:href="#path-1"></use>
                    </mask>
                    <g id="Clip-2"></g>
                    <path d="M0.00147457845,18.6566954 C2.35536744,20.1409375 5.14759814,21 8.14075956,21 C16.5496596,21 23.3661701,14.2217939 23.3661701,5.86204248 C23.3661701,5.65331491 23.3617463,5.44613061 23.3537526,5.23956362 C23.6578262,5.00159104 25.5389226,3.50253354 26,2.53883718 C26,2.53883718 24.4724143,3.17003553 22.977347,3.31872981 C22.9743979,3.31872981 22.9707502,3.31942429 22.9678011,3.31942429 C22.9678011,3.31942429 22.9707502,3.31795818 22.9758724,3.31433149 C23.1136291,3.22281544 25.0395838,1.91929054 25.3003513,0.366141342 C25.3003513,0.366141342 24.2198734,0.939544147 22.7070335,1.44118479 C22.456588,1.52390418 22.1944235,1.60523463 21.92411,1.68062348 C20.9489479,0.645859437 19.5628442,0 18.024238,0 C15.0729857,0 12.6815299,2.37702509 12.6815299,5.30908804 C12.6815299,5.72283933 12.7294149,6.12555622 12.819985,6.51222308 C12.4075687,6.49540142 6.12718388,6.14531011 1.85463164,1.00096638 C1.85463164,1.00096638 -0.698872574,4.46692437 3.37631899,8.03095731 C3.37631899,8.03095731 2.13751787,7.98188125 1.06875894,7.34697904 C1.06875894,7.34697904 0.676210632,11.5459142 5.29125312,12.6194915 C5.29125312,12.6194915 4.38314563,12.9614035 2.93441111,12.7176436 C2.93441111,12.7176436 3.74457555,16.1103734 7.84483495,16.4273615 C7.84483495,16.4273615 4.60254738,19.3395934 0,18.6563096 L0.00147457845,18.6566954 Z" id="Fill-1" fill="#FFFFFF" mask="url(#mask-2)"></path>
                </g>
            </g>
        </g>
    </g>
</svg>