<?xml version="1.0" encoding="UTF-8"?>
<svg width="20px" height="21px" viewBox="0 0 20 21" version="1.1" xmlns="http://www.w3.org/2000/svg" xmlns:xlink="http://www.w3.org/1999/xlink">
    <!-- Generator: sketchtool 52.6 (67491) - http://www.bohemiancoding.com/sketch -->
    <title>12119A29-A8F2-497A-A667-2DA3BC260164</title>
    <desc>Created with sketchtool.</desc>
    <defs>
        <polygon id="path-1" points="0.0003 0.866 19.134 0.866 19.134 20 0.0003 20"></polygon>
    </defs>
    <g id="Symbols" stroke="none" stroke-width="1" fill="none" fill-rule="evenodd">
        <g id="behance">
            <g id="Group-10">
                <path d="M6.3257,11.0024 L4.1407,11.0024 L4.1407,13.5024 L6.3257,13.5024 C6.3257,13.5024 7.7747,13.5364 7.7747,12.2524 C7.7747,10.9694 6.3257,11.0024 6.3257,11.0024" id="Fill-1" fill="#9B9B9B"></path>
                <path d="M7.415,8.5356 C7.415,7.4596 6.2,7.4876 6.2,7.4876 L4.141,7.4876 L4.141,9.5836 L6.2,9.5836 C6.2,9.5836 7.415,9.6116 7.415,8.5356" id="Fill-3" fill="#9B9B9B"></path>
                <path d="M13.665,9.6025 C12.923,9.6025 12.308,10.1575 12.19,11.0285 L15.14,11.0285 C15.023,10.1575 14.407,9.6025 13.665,9.6025" id="Fill-5" fill="#9B9B9B"></path>
                <g id="Group-9" transform="translate(0.000000, 0.134200)">
                    <mask id="mask-2" fill="white">
                        <use xlink:href="#path-1"></use>
                    </mask>
                    <g id="Clip-8"></g>
                    <path d="M16.9863,12.0655 L12.2013,12.0655 L12.1903,12.0655 C12.1463,13.1225 12.9173,13.7525 13.7953,13.7525 C14.4173,13.7525 14.9633,13.4225 15.2783,12.8635 L16.8483,12.8635 C16.4173,14.4355 15.1523,15.0895 13.6573,15.0895 C11.7003,15.0895 10.3093,13.5195 10.3093,11.5835 C10.3093,9.6465 11.8083,8.0765 13.6573,8.0765 C15.5073,8.0765 17.0063,9.6465 17.0063,11.5835 C17.0063,11.7505 16.9993,11.9115 16.9863,12.0655 Z M8.2403,14.5885 C7.7273,14.8415 7.0823,14.9215 6.4783,14.9215 L2.1283,14.9215 L2.1283,5.7765 L6.9143,5.7765 C7.5073,5.7765 9.3413,6.1285 9.3523,7.8915 C9.3593,9.1095 8.6693,9.6665 8.0933,9.9335 C8.0933,9.9335 9.6133,10.3865 9.7343,11.7315 C9.8543,13.0765 9.6133,13.9115 8.2403,14.5885 Z M11.7933,7.2975 L15.5223,7.2975 L15.5223,6.3705 L11.7933,6.3705 L11.7933,7.2975 Z M16.9613,0.8655 L2.1733,0.8655 C0.9733,0.8655 0.0003,1.8385 0.0003,3.0385 L0.0003,17.8265 C0.0003,19.0265 0.9733,20.0005 2.1733,20.0005 L16.9613,20.0005 C18.1613,20.0005 19.1343,19.0265 19.1343,17.8265 L19.1343,3.0385 C19.1343,1.8385 18.1613,0.8655 16.9613,0.8655 Z" id="Fill-7" fill="#9B9B9B" mask="url(#mask-2)"></path>
                </g>
            </g>
        </g>
    </g>
</svg>