<?xml version="1.0" encoding="UTF-8"?>
<svg width="21px" height="21px" viewBox="0 0 21 21" version="1.1" xmlns="http://www.w3.org/2000/svg" xmlns:xlink="http://www.w3.org/1999/xlink">
    <!-- Generator: sketchtool 52.6 (67491) - http://www.bohemiancoding.com/sketch -->
    <title>2D21753F-1586-48C3-B097-21B4F0F6DFAC</title>
    <desc>Created with sketchtool.</desc>
    <defs>
        <polygon id="path-1" points="0 0 21 0 21 21 0 21"></polygon>
    </defs>
    <g id="artist" stroke="none" stroke-width="1" fill="none" fill-rule="evenodd">
        <g id="artist_studio_account" transform="translate(-1098.000000, -622.000000)">
            <g id="dribbble" transform="translate(1098.000000, 622.000000)">
                <g id="Group-3">
                    <mask id="mask-2" fill="white">
                        <use xlink:href="#path-1"></use>
                    </mask>
                    <g id="Clip-2"></g>
                    <path d="M16.5279277,16.5279277 C16.2132803,16.8425752 15.8781403,17.1291256 15.5259149,17.387332 C15.1886516,15.4574747 14.681374,13.64761 14.0971628,11.9997602 C16.1677029,11.6750393 17.9894186,11.6831375 18.9381014,11.7211105 C18.6795493,13.5348268 17.8465138,15.2093911 16.5279277,16.5279277 M4.93742652,16.9605927 C6.43743357,14.7637393 8.85555733,13.2333144 12.1420231,12.3983037 C12.8011433,14.2106373 13.3651088,16.2372295 13.6902741,18.4096892 C12.689792,18.813072 11.6112407,19.0248121 10.5,19.0248121 C8.43592867,19.0248121 6.48380111,18.2961653 4.93742652,16.9605927 M1.97518788,10.5 C1.97518788,10.4798037 1.97578043,10.4596568 1.97592857,10.4395099 C2.3402026,10.4589161 2.80382857,10.4748164 3.34428936,10.4748164 C4.48614547,10.4748164 5.97114109,10.4037096 7.58635098,10.1442687 C8.75151431,9.95707023 9.84966939,9.69288885 10.8717797,9.35458855 C11.05246,9.73737996 11.2325972,10.1363185 11.4101172,10.5502685 C10.1008639,10.9024445 8.89886333,11.3631571 7.82080578,11.9276658 C6.07153002,12.8436592 4.64662948,14.033858 3.57385557,15.472338 C2.5357462,14.032821 1.97518788,12.3096178 1.97518788,10.5 M4.47202287,4.47202287 C5.18323865,3.7608071 5.99810241,3.19101478 6.8824434,2.77612656 C7.50329433,3.58239825 8.52579972,5.00478042 9.59714162,6.89498584 C9.71960327,7.1110714 9.84492894,7.33802049 9.97178538,7.57321598 C9.14857645,7.82771894 8.2646305,8.0325953 7.31979938,8.18646244 C5.20012651,8.53162652 3.28982355,8.52115802 2.21695087,8.47207461 C2.5817187,6.97038864 3.35144941,5.59264572 4.47202287,4.47202287 M15.7994291,3.8218404 C14.8050701,5.08847901 13.4797191,6.10540449 11.8331037,6.86545679 C11.6478804,6.51644109 11.4653731,6.18446139 11.2881493,5.87282612 C10.3818344,4.27889888 9.51704775,3.01033447 8.87012434,2.13028951 C9.40159802,2.02797477 9.9467005,1.97518788 10.5,1.97518788 C12.4488191,1.97518788 14.2974468,2.62522221 15.7994291,3.8218404 M18.9913821,9.74493505 C17.8768329,9.70014767 15.7678755,9.69901194 13.37138,10.118048 C13.1548994,9.59901805 12.9337771,9.1012707 12.7115685,8.62633678 C12.8503748,8.56155062 12.9880454,8.4956781 13.1230989,8.42763288 C14.7691217,7.59810335 16.1360505,6.52498378 17.2013681,5.22960619 C18.2284657,6.5302674 18.8469465,8.08834498 18.9913821,9.74493505 M10.5,0 C4.70099653,0 0,4.70099653 0,10.5 C0,16.2990035 4.70099653,21 10.5,21 C16.2990035,21 21,16.2990035 21,10.5 C21,4.70099653 16.2989541,0 10.5,0" id="Fill-1" fill="#9B9B9B" mask="url(#mask-2)"></path>
                </g>
            </g>
        </g>
    </g>
</svg>