<?xml version="1.0" encoding="UTF-8"?>
<svg width="16px" height="19px" viewBox="0 0 16 19" version="1.1" xmlns="http://www.w3.org/2000/svg" xmlns:xlink="http://www.w3.org/1999/xlink">
    <!-- Generator: sketchtool 52.6 (67491) - http://www.bohemiancoding.com/sketch -->
    <title>BE7EE70B-0623-4414-88D3-8237FCBB6B9A</title>
    <desc>Created with sketchtool.</desc>
    <defs>
        <polygon id="path-1" points="0.00131923372 0.0415995308 12.7718449 0.0415995308 12.7718449 13.0909091 0.00131923372 13.0909091"></polygon>
    </defs>
    <g id="artist" stroke="none" stroke-width="1" fill="none" fill-rule="evenodd">
        <g id="artist_studio_account" transform="translate(-940.000000, -241.000000)">
            <g id="util/remove/grey" transform="translate(940.000000, 241.273837)">
                <g id="Group-3" stroke-width="1" transform="translate(1.600000, 4.909091)">
                    <mask id="mask-2" fill="white">
                        <use xlink:href="#path-1"></use>
                    </mask>
                    <g id="Clip-2"></g>
                    <path d="M2.78357824,3.07619894 C2.78357824,2.88152446 2.96689778,2.7236312 3.19303111,2.7236312 L3.84803801,2.7236312 C4.0741223,2.7236312 4.25749088,2.88148223 4.25749088,3.07619894 L4.25749088,10.0563139 C4.25749088,10.2510306 4.07417134,10.4088816 3.84803801,10.4088816 L3.19303111,10.4088816 C2.96694682,10.4088816 2.78357824,10.2511151 2.78357824,10.0563139 L2.78357824,3.07619894 Z M5.64965027,3.07619894 C5.64965027,2.88152446 5.83296981,2.7236312 6.05910314,2.7236312 L6.714061,2.7236312 C6.94009625,2.7236312 7.12351387,2.88148223 7.12351387,3.07619894 L7.12351387,10.0563139 C7.12351387,10.2510306 6.94024337,10.4088816 6.714061,10.4088816 L6.05910314,10.4088816 C5.83301885,10.4088816 5.64965027,10.2511151 5.64965027,10.0563139 L5.64965027,3.07619894 Z M8.51562421,3.07619894 C8.51562421,2.88152446 8.69894375,2.7236312 8.92512613,2.7236312 L9.58008398,2.7236312 C9.80611923,2.7236312 9.9895859,2.88148223 9.9895859,3.07619894 L9.9895859,10.0563139 C9.9895859,10.2510306 9.80626636,10.4088816 9.58008398,10.4088816 L8.92512613,10.4088816 C8.69904184,10.4088816 8.51562421,10.2511151 8.51562421,10.0563139 L8.51562421,3.07619894 Z M0.673441839,12.2590494 C0.696050268,12.7239878 1.14037211,13.0909133 1.68071847,13.0909133 L11.0924457,13.0909133 C11.632792,13.0909133 12.0771139,12.7239878 12.0997223,12.2590494 L12.7718449,0.0415995308 L0.00131923372,0.0415995308 L0.673441839,12.2590494 Z" id="Fill-1" fill="#9B9B9B" mask="url(#mask-2)"></path>
                </g>
                <path d="M15.3221087,1.38716262 L10.6692593,1.38716262 L10.6692593,0.283787248 C10.6692593,0.127094498 10.5679882,0 10.4429627,0 L5.55698473,0 C5.43211693,0 5.33084579,0.127094498 5.33084579,0.283787248 L5.33084579,1.3870967 L0.677943833,1.3870967 C0.303498111,1.3870967 0,1.76785283 0,2.23753555 L0,4.90909091 L16,4.90909091 L16,2.23760147 C16,1.76791875 15.6965544,1.38716262 15.3221087,1.38716262" id="Fill-4" fill="#9B9B9B"></path>
            </g>
        </g>
    </g>
</svg>