<?xml version="1.0" encoding="UTF-8"?>
<svg width="23px" height="23px" viewBox="0 0 23 23" version="1.1" xmlns="http://www.w3.org/2000/svg" xmlns:xlink="http://www.w3.org/1999/xlink">
    <!-- Generator: sketchtool 52.6 (67491) - http://www.bohemiancoding.com/sketch -->
    <title>5F64A8B0-CDE2-441A-8C8C-89105640C4D9</title>
    <desc>Created with sketchtool.</desc>
    <defs>
        <polygon id="path-1" points="1.15310162e-05 0.0371298721 21.1799399 0.0371298721 21.1799399 21.2170659 1.15310162e-05 21.2170659"></polygon>
    </defs>
    <g id="Symbols" stroke="none" stroke-width="1" fill="none" fill-rule="evenodd">
        <g id="instagram">
            <g id="Group-8" transform="translate(0.254202, 0.719005)">
                <g id="Group-3">
                    <mask id="mask-2" fill="white">
                        <use xlink:href="#path-1"></use>
                    </mask>
                    <g id="Clip-2"></g>
                    <path d="M19.0492502,14.9074476 C19.0492502,17.2153805 17.178266,19.0863647 14.8703331,19.0863647 L6.30962983,19.0863647 C4.00169695,19.0863647 2.1307127,17.2153805 2.1307127,14.9074476 L2.1307127,6.34674433 C2.1307127,4.03877301 4.00169695,2.1678272 6.30962983,2.1678272 L14.8703331,2.1678272 C17.178266,2.1678272 19.0492502,4.03877301 19.0492502,6.34674433 L19.0492502,14.9074476 Z M14.8703331,0.0371260284 L6.30962983,0.0371260284 C2.83049163,0.0371260284 1.15310162e-05,2.86760613 1.15310162e-05,6.34674433 L1.15310162e-05,14.9074476 C1.15310162e-05,18.3865858 2.83049163,21.2170659 6.30962983,21.2170659 L14.8703331,21.2170659 C18.3494713,21.2170659 21.1799514,18.3865858 21.1799514,14.9074476 L21.1799514,6.34674433 C21.179913,2.86760613 18.3494329,0.0371260284 14.8703331,0.0371260284 Z" id="Fill-1" fill="#9B9B9B" mask="url(#mask-2)"></path>
                </g>
                <path d="M10.3218177,13.8257071 C8.38665746,13.8257071 6.81792831,12.2570182 6.81792831,10.3218177 C6.81792831,8.38665746 8.38669769,6.81792831 10.3218177,6.81792831 C12.256978,6.81792831 13.8257071,8.38665746 13.8257071,10.3218177 C13.8257071,12.256978 12.2569377,13.8257071 10.3218177,13.8257071 M10.3218177,4.58747454 C7.15989581,4.58747454 4.58747454,7.15989581 4.58747454,10.3218177 C4.58747454,13.4836592 7.15989581,16.0561609 10.3218177,16.0561609 C13.4837396,16.0561609 16.0561609,13.4836994 16.0561609,10.3218177 C16.0561609,7.15989581 13.4837396,4.58747454 10.3218177,4.58747454" id="Fill-4" fill="#9B9B9B"></path>
                <path d="M16.0561609,3.44060591 C16.6895413,3.44060591 17.2030295,3.95409409 17.2030295,4.58747454 C17.2030295,5.22088858 16.6895413,5.73434318 16.0561609,5.73434318 C15.4227469,5.73434318 14.9092923,5.22088858 14.9092923,4.58747454 C14.9092923,3.95409409 15.4227469,3.44060591 16.0561609,3.44060591" id="Fill-6" fill="#9B9B9B"></path>
            </g>
        </g>
    </g>
</svg>