<?xml version="1.0" encoding="UTF-8"?>
<svg width="21px" height="21px" viewBox="0 0 21 21" version="1.1" xmlns="http://www.w3.org/2000/svg" xmlns:xlink="http://www.w3.org/1999/xlink">
    <!-- Generator: sketchtool 52.6 (67491) - http://www.bohemiancoding.com/sketch -->
    <title>20489C47-32B8-42F3-A9DB-4E8DA4D7A22B</title>
    <desc>Created with sketchtool.</desc>
    <defs>
        <polygon id="path-1" points="0 0 21 0 21 21 0 21"></polygon>
    </defs>
    <g id="artist" stroke="none" stroke-width="1" fill="none" fill-rule="evenodd">
        <g id="artist_studio_account" transform="translate(-841.000000, -490.000000)">
            <g id="web" transform="translate(841.000000, 490.000000)">
                <g id="Group-3">
                    <mask id="mask-2" fill="white">
                        <use xlink:href="#path-1"></use>
                    </mask>
                    <g id="Clip-2"></g>
                    <path d="M16.786,9.8 C16.7482,8.8242 16.6292,7.8848 16.4416,7 L18.9028,7 C19.2654,7.8722 19.4978,8.8144 19.5734,9.8 L16.786,9.8 Z M18.9028,14 L16.4416,14 C16.6292,13.1152 16.7482,12.1758 16.786,11.2 L19.572,11.2 C19.4978,12.1856 19.2654,13.1278 18.9028,14 Z M14.4256,18.711 C15.1032,17.8108 15.666,16.6852 16.0762,15.4 L18.1692,15.4 C17.2578,16.8252 15.96,17.976 14.4256,18.711 Z M11.2,19.5104 L11.2,15.4 L14.63,15.4 C13.8782,17.5798 12.6378,19.1254 11.2,19.5104 Z M11.2,11.2 L15.386,11.2 C15.3454,12.1856 15.2208,13.1278 15.022,14 L11.2,14 L11.2,11.2 Z M11.2,7 L15.022,7 C15.2208,7.8722 15.3426,8.8144 15.386,9.8 L11.2,9.8 L11.2,7 Z M11.2,1.491 C12.6378,1.8746 13.8782,3.4202 14.63,5.6 L11.2,5.6 L11.2,1.491 Z M18.1692,5.6 L16.0762,5.6 C15.666,4.3148 15.106,3.1878 14.4256,2.289 C15.96,3.024 17.2578,4.1762 18.1692,5.6 Z M9.8,5.6 L6.37,5.6 C7.1218,3.4202 8.3608,1.8746 9.8,1.491 L9.8,5.6 Z M9.8,9.8 L5.614,9.8 C5.6546,8.8144 5.7792,7.8722 5.9766,7 L9.8,7 L9.8,9.8 Z M9.8,14 L5.9766,14 C5.7792,13.1278 5.6546,12.1856 5.614,11.2 L9.8,11.2 L9.8,14 Z M9.8,19.5104 C8.3608,19.1254 7.1218,17.5798 6.37,15.4 L9.8,15.4 L9.8,19.5104 Z M2.8294,15.4 L4.9252,15.4 C5.334,16.6852 5.8954,17.8122 6.573,18.711 C5.0386,17.976 3.7422,16.8252 2.8294,15.4 Z M1.4266,11.2 L4.214,11.2 C4.2518,12.1758 4.3708,13.1152 4.5584,14 L2.0972,14 C1.7332,13.1278 1.5008,12.1856 1.4266,11.2 Z M2.0972,7 L4.5584,7 C4.3708,7.8848 4.2518,8.8242 4.214,9.8 L1.4266,9.8 C1.5008,8.8144 1.7332,7.8722 2.0972,7 Z M6.573,2.289 C5.8968,3.1878 5.3354,4.3148 4.9266,5.6 L2.8294,5.6 C3.7422,4.1762 5.0386,3.024 6.573,2.289 Z M20.9748,9.8 C20.6304,4.5584 16.4416,0.3682 11.2,0.0238 L11.2,0 L10.5,0 L9.8,0 L9.8,0.0238 C4.5584,0.3682 0.3682,4.5584 0.0238,9.8 L0,9.8 L0,10.5 L0,11.2 L0.0238,11.2 C0.3682,16.4416 4.5584,20.6304 9.8,20.9748 L9.8,21 L10.5,21 L11.2,21 L11.2,20.9748 C16.4416,20.6304 20.6304,16.4416 20.9748,11.2 L21,11.2 L21,10.5 L21,9.8 L20.9748,9.8 Z" id="Fill-1" fill="#9B9B9B" mask="url(#mask-2)"></path>
                </g>
            </g>
        </g>
    </g>
</svg>