<?xml version="1.0" encoding="UTF-8"?>
<svg width="21px" height="19px" viewBox="0 0 21 19" version="1.1" xmlns="http://www.w3.org/2000/svg" xmlns:xlink="http://www.w3.org/1999/xlink">
    <!-- Generator: sketchtool 52.6 (67491) - http://www.bohemiancoding.com/sketch -->
    <title>F900B10C-FD31-438A-B4F2-BA7AA2CA8221</title>
    <desc>Created with sketchtool.</desc>
    <g id="artist_kor" stroke="none" stroke-width="1" fill="none" fill-rule="evenodd">
        <g id="artist_studio_draft" transform="translate(-944.000000, -1157.000000)" fill="#B1B1B1">
            <g id="file" transform="translate(944.499480, 1157.292286)">
                <path d="M18.29614,1.73297667 C16.3291827,-0.26643055 13.1395342,-0.26643055 11.1726325,1.73297667 L1.37821917,11.6889171 C-0.0975957893,13.1890229 -0.0975957893,15.619822 1.37821917,17.1200407 C2.59463501,18.356468 4.42936595,18.5561885 5.86364151,17.753637 C6.01347213,17.7459598 6.16080372,17.6883807 6.27542581,17.5731095 L16.0697836,7.61722552 C17.0532344,6.61755014 17.0532344,4.9970362 16.0697836,3.99736081 C15.0863327,2.99768543 13.4921193,2.99768543 12.5086684,3.99736081 L4.49484049,12.1433406 C4.24926932,12.3929631 4.24926932,12.7986702 4.49484049,13.0482927 C4.74041165,13.2979152 5.13958975,13.2979152 5.38510538,13.0482927 L13.3988778,4.90231288 C13.8912974,4.40182601 14.6883763,4.40182601 15.1795187,4.90231288 C15.6718827,5.40279975 15.6718827,6.21302849 15.1795187,6.71227346 L5.82965472,16.2162741 C4.84620384,17.2159495 3.25199048,17.2159495 2.2685396,16.2162741 C1.28508872,15.2165987 1.28508872,13.5960848 2.2685396,12.5964094 L12.0628974,2.63792874 C13.5387123,1.13776648 15.9300046,1.13776648 17.4058751,2.63792874 C18.88169,4.13809099 18.88169,6.56883367 17.4058751,8.06905238 L8.50178223,17.1200407 C8.25621106,17.3696632 8.25621106,17.7753703 8.50178223,18.0249363 C8.7473534,18.2746153 9.14653149,18.2746153 9.39204713,18.0249363 L18.29614,8.97400444 C20.2630973,6.97465367 20.2630973,3.73238389 18.29614,1.73297667" id="Fill-1"></path>
            </g>
        </g>
    </g>
</svg>