<?xml version="1.0" encoding="UTF-8"?>
<svg width="26px" height="20px" viewBox="0 0 26 20" version="1.1" xmlns="http://www.w3.org/2000/svg" xmlns:xlink="http://www.w3.org/1999/xlink">
    <!-- Generator: sketchtool 52.5 (67469) - http://www.bohemiancoding.com/sketch -->
    <title>91A7A3FC-8E77-45E1-85C5-07F68E9D578A</title>
    <desc>Created with sketchtool.</desc>
    <g id="user4" stroke="none" stroke-width="1" fill="none" fill-rule="evenodd">
        <g id="mobile_home" transform="translate(-260.000000, -57.000000)" fill="#9B9B9B">
            <g id="menu" transform="translate(260.000000, 57.000000)">
                <g id="Group-7" transform="translate(0.754969, 0.000000)">
                    <path d="M22.4803276,0 L2.40860652,0 C1.08387294,0 0,0.823743431 0,1.83054096 C0,2.83733849 1.08387294,3.66108192 2.40860652,3.66108192 L22.4803276,3.66108192 C23.8050611,3.66108192 24.8889341,2.83733849 24.8889341,1.83054096 C24.8889341,0.823743431 23.8050611,0 22.4803276,0" id="Fill-1"></path>
                    <path d="M22.4803276,7.71198351 L2.40860652,7.71198351 C1.08387294,7.71198351 0,8.53572695 0,9.54252447 C0,10.549322 1.08387294,11.3730654 2.40860652,11.3730654 L22.4803276,11.3730654 C23.8050611,11.3730654 24.8889341,10.549322 24.8889341,9.54252447 C24.8889341,8.53572695 23.8050611,7.71198351 22.4803276,7.71198351" id="Fill-3"></path>
                    <path d="M22.4803276,15.423967 L2.40860652,15.423967 C1.08387294,15.423967 0,16.2477105 0,17.254508 C0,18.2613055 1.08387294,19.0850489 2.40860652,19.0850489 L22.4803276,19.0850489 C23.8050611,19.0850489 24.8889341,18.2613055 24.8889341,17.254508 C24.8889341,16.2477105 23.8050611,15.423967 22.4803276,15.423967" id="Fill-5"></path>
                </g>
            </g>
        </g>
    </g>
</svg>