<?xml version="1.0" encoding="UTF-8"?>
<svg width="26px" height="20px" viewBox="0 0 26 20" version="1.1" xmlns="http://www.w3.org/2000/svg" xmlns:xlink="http://www.w3.org/1999/xlink">
    <!-- Generator: sketchtool 52.5 (67469) - http://www.bohemiancoding.com/sketch -->
    <title>5FF1CD0E-D92F-4169-8684-F124F64C8840</title>
    <desc>Created with sketchtool.</desc>
    <defs>
        <polygon id="path-1" points="6.44801873e-06 1.93440562e-05 24.6389757 1.93440562e-05 24.6389757 18.7138913 6.44801873e-06 18.7138913"></polygon>
    </defs>
    <g id="Symbols" stroke="none" stroke-width="1" fill="none" fill-rule="evenodd">
        <g id="message">
            <g id="Group-3" transform="translate(0.327140, 0.932623)">
                <mask id="mask-2" fill="white">
                    <use xlink:href="#path-1"></use>
                </mask>
                <g id="Clip-2"></g>
                <path d="M12.3195266,9.48131505 L4.05387583,2.47941151 L20.5851773,2.47941151 L12.3195266,9.48131505 Z M21.7146123,16.234454 L2.92444086,16.234454 C2.6874117,16.234454 2.47952757,16.0807977 2.47952757,15.9054761 L2.47952757,4.54032726 L10.9778228,11.7150377 C11.1520483,11.8621815 11.3736022,11.9431686 11.6017331,11.9431686 L13.0369331,11.9432331 C13.2649995,11.9432331 13.4866824,11.8621815 13.6609724,11.7150377 L22.1596545,4.54006933 L22.1596545,15.9056051 C22.1595256,16.0807977 21.9515769,16.234454 21.7146123,16.234454 Z M21.7146123,1.93440562e-05 L2.92444086,1.93440562e-05 C1.31192034,1.93440562e-05 6.44801873e-06,1.25989772 6.44801873e-06,2.8084539 L6.44801873e-06,15.9054761 C6.44801873e-06,17.4540323 1.31192034,18.7139107 2.92444086,18.7139107 L21.7146123,18.7139107 C23.3271328,18.7139107 24.6389822,17.4540323 24.6389822,15.9054761 L24.6389822,2.8084539 C24.6389822,1.25989772 23.3271328,1.93440562e-05 21.7146123,1.93440562e-05 Z" id="Fill-1" fill="#9B9B9B" mask="url(#mask-2)"></path>
            </g>
        </g>
    </g>
</svg>