<?xml version="1.0" encoding="UTF-8"?>
<svg width="29px" height="30px" viewBox="0 0 29 30" version="1.1" xmlns="http://www.w3.org/2000/svg" xmlns:xlink="http://www.w3.org/1999/xlink">
    <!-- Generator: sketchtool 52.6 (67491) - http://www.bohemiancoding.com/sketch -->
    <title>7D33EDB9-ED11-4544-BDA1-B731DF8ACCA5</title>
    <desc>Created with sketchtool.</desc>
    <defs>
        <polygon id="path-1" points="0 5.56476773e-06 28.4917221 5.56476773e-06 28.4917221 28.4912212 0 28.4912212"></polygon>
    </defs>
    <g id="artist" stroke="none" stroke-width="1" fill="none" fill-rule="evenodd">
        <g id="artist_studio_account" transform="translate(-125.000000, -722.000000)">
            <g id="Group-3" transform="translate(125.379138, 722.594020)">
                <mask id="mask-2" fill="white">
                    <use xlink:href="#path-1"></use>
                </mask>
                <g id="Clip-2"></g>
                <path d="M27.7682466,1.27951261 C27.2612963,1.06966522 26.8285799,1.15591912 26.4697637,1.53927597 L24.0583829,3.93234868 C22.7352481,2.68333656 21.2235789,1.71573475 19.5231529,1.02943195 C17.8227824,0.34318479 16.0636481,5.56476773e-06 14.2458054,5.56476773e-06 C12.316723,5.56476773e-06 10.4742284,0.377352464 8.7182103,1.13154543 C6.96213655,1.8858497 5.44723983,2.89969473 4.17363144,4.17341442 C2.89991176,5.4472454 1.88578849,6.96191952 1.13153987,8.71793763 C0.377291252,10.474067 0,12.3162834 0,14.2455884 C0,16.1743925 0.377291252,18.017054 1.13153987,19.7730721 C1.88606673,21.5292572 2.89991176,23.0440983 4.17363144,24.3177623 C5.44735113,25.5911481 6.9621922,26.6051601 8.7183216,27.3595756 C10.4742841,28.1138799 12.3167786,28.4912268 14.245861,28.4912268 C16.3727153,28.4912268 18.3951188,28.0430404 20.3115691,27.1463894 C22.2281308,26.2501279 23.8604998,24.9854788 25.2087317,23.3531098 C25.3074507,23.2294607 25.3538608,23.0902858 25.347517,22.9357522 C25.3417296,22.7812186 25.2825762,22.6545089 25.1713921,22.5555116 L22.6305748,19.9957741 C22.494071,19.8846457 22.339927,19.8291093 22.1667514,19.8291093 C21.9689239,19.8538169 21.8267998,19.9282735 21.7401563,20.051867 C20.8374397,21.2268677 19.730663,22.1355943 18.4198264,22.779104 C17.1091566,23.4218903 15.7180203,23.7431444 14.2463619,23.7431444 C12.960511,23.7431444 11.7331458,23.4927298 10.5645446,22.9918451 C9.39583207,22.4911829 8.38476942,21.8141733 7.53163488,20.9608718 C6.67861164,20.107459 6.00160199,19.0968416 5.5006616,17.9279621 C4.99988815,16.7593609 4.74941796,15.5322739 4.74941796,14.2461448 C4.74941796,12.9600714 5.00011075,11.732428 5.5006616,10.564105 C6.0013794,9.39561504 6.6783334,8.38455239 7.53163488,7.5314735 C8.38504766,6.67817202 9.39583207,6.00110673 10.5645446,5.50022199 C11.7328676,4.99950419 12.960511,4.74897834 14.2463619,4.74897834 C16.7320323,4.74897834 18.8900492,5.59610293 20.7203013,7.29029647 L18.1599517,9.84970009 C17.7763723,10.2207032 17.690174,10.6474095 17.8999658,11.1296523 C18.1105366,11.6243045 18.4753627,11.8716028 18.9950007,11.8716028 L27.304924,11.8716028 C27.6264007,11.8716028 27.9045278,11.7541862 28.1396392,11.5191861 C28.3743611,11.2842972 28.4917221,11.0060588 28.4917221,10.6845265 L28.4917221,2.37443631 C28.4916108,1.85518783 28.2511015,1.49041731 27.7682466,1.27951261" id="Fill-1" fill="#FFFFFF" mask="url(#mask-2)"></path>
            </g>
        </g>
    </g>
</svg>