<?xml version="1.0" encoding="UTF-8"?>
<svg width="15px" height="18px" viewBox="0 0 15 18" version="1.1" xmlns="http://www.w3.org/2000/svg" xmlns:xlink="http://www.w3.org/1999/xlink">
    <!-- Generator: sketchtool 52.6 (67491) - http://www.bohemiancoding.com/sketch -->
    <title>E59C56CA-CBC0-40B2-A152-F918706F303C</title>
    <desc>Created with sketchtool.</desc>
    <defs>
        <polygon id="path-1" points="0.0011543295 0.0392884457 11.1753643 0.0392884457 11.1753643 12.3636364 0.0011543295 12.3636364"></polygon>
    </defs>
    <g id="artist_kor" stroke="none" stroke-width="1" fill="none" fill-rule="evenodd">
        <g id="artist_studio_draft" transform="translate(-866.000000, -1158.000000)">
            <g id="util/remove" transform="translate(866.770029, 1158.074909)">
                <g id="Group-3" stroke-width="1" transform="translate(1.400000, 4.636364)">
                    <mask id="mask-2" fill="white">
                        <use xlink:href="#path-1"></use>
                    </mask>
                    <g id="Clip-2"></g>
                    <path d="M2.43563096,2.905299 C2.43563096,2.72143977 2.59603556,2.57231836 2.79390222,2.57231836 L3.36703326,2.57231836 C3.56485701,2.57231836 3.72530452,2.72139988 3.72530452,2.905299 L3.72530452,9.49762979 C3.72530452,9.68152891 3.56489992,9.83061044 3.36703326,9.83061044 L2.79390222,9.83061044 C2.59607847,9.83061044 2.43563096,9.68160868 2.43563096,9.49762979 L2.43563096,2.905299 Z M4.94344398,2.905299 C4.94344398,2.72143977 5.10384858,2.57231836 5.30171525,2.57231836 L5.87480337,2.57231836 C6.07258421,2.57231836 6.23307464,2.72139988 6.23307464,2.905299 L6.23307464,9.49762979 C6.23307464,9.68152891 6.07271295,9.83061044 5.87480337,9.83061044 L5.30171525,9.83061044 C5.10389149,9.83061044 4.94344398,9.68160868 4.94344398,9.49762979 L4.94344398,2.905299 Z M7.45117119,2.905299 C7.45117119,2.72143977 7.61157579,2.57231836 7.80948536,2.57231836 L8.38257349,2.57231836 C8.58035433,2.57231836 8.74088766,2.72139988 8.74088766,2.905299 L8.74088766,9.49762979 C8.74088766,9.68152891 8.58048307,9.83061044 8.38257349,9.83061044 L7.80948536,9.83061044 C7.61166161,9.83061044 7.45117119,9.68160868 7.45117119,9.49762979 L7.45117119,2.905299 Z M0.589261609,11.5779911 C0.609043985,12.0170996 0.997825594,12.3636404 1.47062866,12.3636404 L9.70588996,12.3636404 C10.178693,12.3636404 10.5674746,12.0170996 10.587257,11.5779911 L11.1753643,0.0392884457 L0.0011543295,0.0392884457 L0.589261609,11.5779911 Z" id="Fill-1" fill="#FFFFFF" mask="url(#mask-2)"></path>
                </g>
                <path d="M13.4068451,1.31009803 L9.33560191,1.31009803 L9.33560191,0.26802129 C9.33560191,0.120033693 9.24698965,0 9.13759238,0 L4.86236164,0 C4.75310232,0 4.66449006,0.120033693 4.66449006,0.26802129 L4.66449006,1.31003577 L0.593200854,1.31003577 C0.265560847,1.31003577 0,1.66963878 0,2.11322802 L0,4.63636364 L14,4.63636364 L14,2.11329028 C14,1.66970104 13.7344851,1.31009803 13.4068451,1.31009803" id="Fill-4" fill="#FFFFFF"></path>
            </g>
        </g>
    </g>
</svg>