<?xml version="1.0" encoding="UTF-8"?>
<svg width="20px" height="17px" viewBox="0 0 20 17" version="1.1" xmlns="http://www.w3.org/2000/svg" xmlns:xlink="http://www.w3.org/1999/xlink">
    <!-- Generator: sketchtool 52.5 (67469) - http://www.bohemiancoding.com/sketch -->
    <title>34C8B1B1-DFDE-4612-9E51-E4D508744584</title>
    <desc>Created with sketchtool.</desc>
    <defs>
        <polygon id="path-1" points="0 0 18.8131653 0 18.8131653 15.2015021 0 15.2015021"></polygon>
    </defs>
    <g id="user4" stroke="none" stroke-width="1" fill="none" fill-rule="evenodd">
        <g id="user_main04" transform="translate(-1314.000000, -3303.000000)">
            <g id="twitter" transform="translate(1314.000000, 3303.000000)">
                <g id="Group-3" transform="translate(0.354391, 0.863103)">
                    <mask id="mask-2" fill="white">
                        <use xlink:href="#path-1"></use>
                    </mask>
                    <g id="Clip-2"></g>
                    <path d="M18.5139544,1.76840611 C18.0959553,1.94845925 17.6620399,2.09050562 17.2167949,2.19334221 C17.7074038,1.74046913 18.0762778,1.17402133 18.2843829,0.541763457 C18.3437825,0.361264751 18.1419614,0.205183051 17.9741746,0.301826273 C17.3547672,0.658724479 16.6875648,0.926464969 15.9910526,1.09769591 C15.9506425,1.10763202 15.9089481,1.11266692 15.867116,1.11266692 C15.7402439,1.11266692 15.6169037,1.06690731 15.5198919,0.983853844 C14.7788414,0.349412701 13.8257411,0 12.8362212,0 C12.4080393,0 11.9757293,0.064829824 11.5512627,0.192707209 C10.2361228,0.588948875 9.22137527,1.64275655 8.90300242,2.94291756 C8.783561,3.43058932 8.75122375,3.91870666 8.8068163,4.3936798 C8.81319201,4.44826161 8.78663419,4.48635749 8.77025915,4.50422468 C8.74149964,4.53554795 8.7007226,4.55350425 8.65838603,4.55350425 C8.65366158,4.55350425 8.64879952,4.55328147 8.64398334,4.55283591 C5.76518826,4.29302649 3.16921799,2.94576918 1.33425102,0.759288681 C1.2406794,0.647763561 1.06124206,0.661442431 0.986659972,0.785710733 C0.627326608,1.38455117 0.437431263,2.06947492 0.437431263,2.76642894 C0.437431263,3.83453928 0.879190216,4.84111698 1.64652336,5.5749193 C1.32383888,5.50059892 1.01152067,5.38354878 0.721402779,5.22702152 C0.581045351,5.15127533 0.408350671,5.24863146 0.406378329,5.40457949 C0.386287951,6.99132842 1.34264494,8.40323733 2.77529982,9.03901517 C2.74644857,9.03968352 2.71759732,9.03999541 2.6887002,9.03999541 C2.46160555,9.03999541 2.23166706,9.01869737 2.00535217,8.97668051 C1.84728953,8.94736228 1.71450039,9.09301774 1.76357962,9.24188128 C2.22859387,10.652097 3.47860062,11.691602 4.97446221,11.9276183 C3.73298699,12.7372113 2.28725961,13.1642416 0.782545411,13.1642416 L0.313448868,13.1639297 C0.168917411,13.1639297 0.0466780163,13.2554935 0.00984565843,13.3914801 C-0.0264362782,13.5254172 0.04039404,13.6667061 0.16364254,13.7363481 C1.85921532,14.6948938 3.79325812,15.2015021 5.75752823,15.2015021 C7.47690673,15.2015021 9.08523774,14.8700011 10.5378913,14.2164007 C11.8695897,13.6171147 13.0463904,12.760559 14.0355892,11.6703931 C14.9570862,10.6548595 15.6776794,9.48248681 16.1772784,8.186024 C16.6535305,6.95015814 16.9052565,5.6314616 16.9052565,4.37247087 L16.9052565,4.31249771 C16.9052106,4.11034451 16.9993326,3.92013247 17.1635416,3.79065105 C17.7866644,3.29919197 18.3292881,2.72066933 18.776276,2.07116807 C18.8942955,1.89966979 18.7081614,1.68472885 18.5139544,1.76840611" id="Fill-1" fill="#9B9B9B" mask="url(#mask-2)"></path>
                </g>
            </g>
        </g>
    </g>
</svg>