<?xml version="1.0" encoding="UTF-8"?>
<svg width="22px" height="17px" viewBox="0 0 22 17" version="1.1" xmlns="http://www.w3.org/2000/svg" xmlns:xlink="http://www.w3.org/1999/xlink">
    <!-- Generator: sketchtool 52.5 (67469) - http://www.bohemiancoding.com/sketch -->
    <title>D5F108DC-9CE6-4AA7-8072-44252FDE938B</title>
    <desc>Created with sketchtool.</desc>
    <defs>
        <polygon id="path-1" points="0 0 20.9944019 0 20.9944019 15.8924795 0 15.8924795"></polygon>
    </defs>
    <g id="user4" stroke="none" stroke-width="1" fill="none" fill-rule="evenodd">
        <g id="user_main04" transform="translate(-1351.000000, -3303.000000)">
            <g id="youtube" transform="translate(1351.000000, 3303.000000)">
                <g id="Group-3" transform="translate(0.539026, 0.172126)">
                    <mask id="mask-2" fill="white">
                        <use xlink:href="#path-1"></use>
                    </mask>
                    <g id="Clip-2"></g>
                    <path d="M7.96339805,12.136073 L7.96339805,4.29813881 L14.8408689,8.30744918 L7.96339805,12.136073 Z M20.7772,3.43128522 C20.7772,3.43128522 20.5599982,1.87814186 19.9446818,1.191893 C19.1483297,0.288951196 18.2433971,0.288951196 17.8452416,0.252822068 C14.9132831,0.0360882123 10.4972009,0 10.4972009,0 C10.4972009,0 6.08111871,0.0360882123 3.14916028,0.252822068 C2.75100473,0.288951196 1.8460722,0.325039408 1.04972009,1.191893 C0.398155551,1.87822369 0.217201849,3.43128522 0.217201849,3.43128522 C0.217201849,3.43128522 0,5.27337979 0,7.11551527 L0,8.81313423 C0,10.6552288 0.217201849,12.4611533 0.217201849,12.4611533 C0.217201849,12.4611533 0.434403698,14.0142967 1.04972009,14.7005865 C1.8460722,15.6035692 2.89579229,15.5673991 3.36636213,15.6758274 C5.03139861,15.8563503 10.4972009,15.8924795 10.4972009,15.8924795 C10.4972009,15.8924795 14.9132831,15.8924795 17.8452416,15.6396574 C18.2433971,15.6034873 19.1483297,15.5673582 19.9446818,14.7005455 C20.5600392,14.0142558 20.7772,12.4611124 20.7772,12.4611124 C20.7772,12.4611124 20.9944019,10.6190587 20.9944019,8.8130524 L20.9944019,7.11543343 C20.9944019,5.27337979 20.7772,3.43128522 20.7772,3.43128522 Z" id="Fill-1" fill="#9B9B9B" mask="url(#mask-2)"></path>
                </g>
            </g>
        </g>
    </g>
</svg>