<?xml version="1.0" encoding="UTF-8"?>
<svg width="20px" height="18px" viewBox="0 0 20 18" version="1.1" xmlns="http://www.w3.org/2000/svg" xmlns:xlink="http://www.w3.org/1999/xlink">
    <!-- Generator: sketchtool 52.6 (67491) - http://www.bohemiancoding.com/sketch -->
    <title>E72BD5AA-32B0-497C-BE7F-2F35B700E0B0</title>
    <desc>Created with sketchtool.</desc>
    <defs>
        <polygon id="path-1" points="0.082901909 0.00848121727 5.97470361 0.00848121727 5.97470361 14.974248 0.082901909 14.974248"></polygon>
        <polygon id="path-3" points="2.65314409e-05 0.049206979 15.5018168 0.049206979 15.5018168 16.4494934 2.65314409e-05 16.4494934"></polygon>
    </defs>
    <g id="Symbols" stroke="none" stroke-width="1" fill="none" fill-rule="evenodd">
        <g id="step/animated/off">
            <g id="Group-7">
                <g id="Group-3" transform="translate(13.088844, 0.304581)">
                    <mask id="mask-2" fill="white">
                        <use xlink:href="#path-1"></use>
                    </mask>
                    <g id="Clip-2"></g>
                    <path d="M0.082901909,0.00848121727 C2.49894335,1.64122609 4.09047606,4.40562535 4.09047606,7.53483193 C4.09047606,10.6520109 2.55297906,13.3606057 0.16921753,14.974248 C3.52022695,14.1240922 5.97473899,11.1806941 5.97473899,7.53483193 C5.97473899,3.89224197 3.46734095,0.840507204 0.082901909,0.00848121727" id="Fill-1" fill="#C9C9C9" mask="url(#mask-2)"></path>
                </g>
                <g id="Group-6" transform="translate(0.000000, 0.039267)">
                    <mask id="mask-4" fill="white">
                        <use xlink:href="#path-3"></use>
                    </mask>
                    <g id="Clip-5"></g>
                    <path d="M9.55727061,5.55412721 C9.67445114,5.62107488 9.758998,5.73144568 9.79516919,5.86489882 C9.83134039,5.99817509 9.81436027,6.13605015 9.74732416,6.25331912 C9.65411037,6.41639904 9.47723409,6.50890533 9.29779312,6.50890533 C9.21227344,6.50899377 9.12604626,6.48794549 9.04813226,6.44337267 L7.55494276,5.57888989 C7.46827339,5.53069111 7.40327136,5.46515845 7.36303201,5.38467974 C7.29732247,5.27006392 7.27972328,5.12564444 7.31695574,4.99298724 C7.35365757,4.8620988 7.43882349,4.75429271 7.55653465,4.68929068 L9.05503043,3.82586915 C9.17442192,3.75777179 9.31892983,3.7401726 9.45141016,3.77731662 C9.5822986,3.81401844 9.69010469,3.89918437 9.75510672,4.01689553 C9.82249658,4.134872 9.84009577,4.27920304 9.80286331,4.41186024 C9.76607305,4.54274869 9.68099556,4.65064321 9.5632844,4.7155568 L8.83331602,5.1378489 L9.55727061,5.55412721 Z M8.36052575,8.51636259 C8.36052575,9.60485917 7.47499469,10.4903018 6.38649811,10.4903018 C5.29808996,10.4903018 4.4125589,9.60485917 4.4125589,8.51636259 L4.4125589,8.42792445 L8.36052575,8.42792445 L8.36052575,8.51636259 Z M2.87497347,5.13130448 C2.87497347,4.45103834 3.42841932,3.89759248 4.10868547,3.89759248 C4.78895161,3.89759248 5.34239747,4.45103834 5.34239747,5.13130448 C5.34239747,5.81157063 4.78895161,6.36492805 4.10868547,6.36492805 C3.42841932,6.36492805 2.87497347,5.81157063 2.87497347,5.13130448 Z M3.32813048,14.1653485 L3.79632197,14.4943384 L3.15735644,16.4495287 L3.71416294,16.3356204 L7.75092167,15.487764 C12.0535254,15.4561031 15.5018168,12.1216317 15.5018168,7.80010212 C15.5018168,3.51651255 12.0345112,0.049206979 7.75092167,0.049206979 C3.4673321,0.049206979 2.65314409e-05,3.51651255 2.65314409e-05,7.80010212 C2.65314409e-05,10.3436714 1.24010608,12.7163781 3.32813048,14.1653485 Z" id="Fill-4" fill="#C9C9C9" mask="url(#mask-4)"></path>
                </g>
            </g>
        </g>
    </g>
</svg>