<?xml version="1.0" encoding="UTF-8"?>
<svg width="18px" height="15px" viewBox="0 0 18 15" version="1.1" xmlns="http://www.w3.org/2000/svg" xmlns:xlink="http://www.w3.org/1999/xlink">
    <!-- Generator: sketchtool 52.6 (67491) - http://www.bohemiancoding.com/sketch -->
    <title>E9FFB7D1-3A28-41E4-B721-296FFA97AAFE</title>
    <desc>Created with sketchtool.</desc>
    <defs>
        <polygon id="path-1" points="4.6480034e-06 1.39440102e-05 17.7608111 1.39440102e-05 17.7608111 13.4897608 4.6480034e-06 13.4897608"></polygon>
    </defs>
    <g id="artist_kor" stroke="none" stroke-width="1" fill="none" fill-rule="evenodd">
        <g id="artist_studio_draft" transform="translate(-370.000000, -292.000000)">
            <g id="message/s/on" transform="translate(369.382660, 292.000000)">
                <g id="Group-3-Copy" transform="translate(0.786078, 0.900927)">
                    <mask id="mask-2" fill="white">
                        <use xlink:href="#path-1"></use>
                    </mask>
                    <g id="Clip-2"></g>
                    <path d="M8.88043346,6.8345311 L2.92220438,1.78726421 L14.8386625,1.78726421 L8.88043346,6.8345311 Z M15.6528068,11.702478 L2.10806011,11.702478 C1.9371995,11.702478 1.78734788,11.5917161 1.78734788,11.4653369 L1.78734788,3.27285906 L7.91327691,8.44469244 C8.03886597,8.55075988 8.19857136,8.6091388 8.36301772,8.6091388 L9.39757032,8.60918528 C9.5619702,8.60918528 9.72176856,8.55075988 9.84740409,8.44469244 L15.973612,3.27267314 L15.973612,11.4654298 C15.973519,11.5917161 15.8236209,11.702478 15.6528068,11.702478 Z M15.6528068,1.39440102e-05 L2.10806011,1.39440102e-05 C0.94568742,1.39440102e-05 4.6480034e-06,0.908187328 4.6480034e-06,2.02445182 L4.6480034e-06,11.4653369 C4.6480034e-06,12.5816014 0.94568742,13.4897748 2.10806011,13.4897748 L15.6528068,13.4897748 C16.8151795,13.4897748 17.7608158,12.5816014 17.7608158,11.4653369 L17.7608158,2.02445182 C17.7608158,0.908187328 16.8151795,1.39440102e-05 15.6528068,1.39440102e-05 Z" id="Fill-1" fill="#FF3B94" mask="url(#mask-2)"></path>
                </g>
            </g>
        </g>
    </g>
</svg>