<?xml version="1.0" encoding="UTF-8"?>
<svg width="18px" height="18px" viewBox="0 0 18 18" version="1.1" xmlns="http://www.w3.org/2000/svg" xmlns:xlink="http://www.w3.org/1999/xlink">
    <!-- Generator: sketchtool 52.6 (67491) - http://www.bohemiancoding.com/sketch -->
    <title>5B6B9CF3-5A55-425A-8FFC-00F9D3C5B2DD</title>
    <desc>Created with sketchtool.</desc>
    <defs>
        <polygon id="path-1" points="3.47671953e-05 3.47671953e-05 15.2353327 3.47671953e-05 15.2353327 16.1184194 3.47671953e-05 16.1184194"></polygon>
    </defs>
    <g id="Symbols" stroke="none" stroke-width="1" fill="none" fill-rule="evenodd">
        <g id="step/coloured/on">
            <g id="Group-3" transform="translate(1.000000, 0.238821)">
                <mask id="mask-2" fill="white">
                    <use xlink:href="#path-1"></use>
                </mask>
                <g id="Clip-2"></g>
                <path d="M9.39291409,5.41033187 C9.50816735,5.47612879 9.59117402,5.58460243 9.6268104,5.71576168 C9.66235986,5.84674709 9.6456716,5.98225223 9.57978777,6.09750548 C9.48817621,6.25778225 9.31434023,6.34869847 9.13789672,6.34869847 C9.05393394,6.34878539 8.9691889,6.32809891 8.89261415,6.28429224 L7.42500392,5.43466891 C7.33982429,5.3872986 7.27602649,5.32289237 7.23639188,5.243797 C7.17189874,5.13115129 7.15460206,4.98921421 7.19110761,4.85883723 C7.2272655,4.73019861 7.31096752,4.62424558 7.42656844,4.56036086 L8.89939376,3.71178054 C9.01673304,3.64485369 9.15867011,3.62755701 9.28887326,3.66406256 C9.41751188,3.70013353 9.52346491,3.78383555 9.58743655,3.8995234 C9.65366806,4.01547199 9.67096474,4.15732215 9.63428535,4.28769913 C9.59812746,4.41633775 9.51459928,4.5223777 9.39882452,4.5861755 L8.68140344,5.0012089 L9.39291409,5.41033187 Z M8.21682679,8.32164989 C8.21682679,9.39143649 7.34643006,10.2616594 6.27673038,10.2616594 C5.20694378,10.2616594 4.33672088,9.39143649 4.33672088,8.32164989 L4.33672088,8.2347319 L8.21682679,8.2347319 L8.21682679,8.32164989 Z M2.82547781,4.99477697 C2.82547781,4.3262038 3.36941058,3.78227103 4.03798375,3.78227103 C4.70664383,3.78227103 5.25057661,4.3262038 5.25057661,4.99477697 C5.25057661,5.66335013 4.70664383,6.20719599 4.03798375,6.20719599 C3.36941058,6.20719599 2.82547781,5.66335013 2.82547781,4.99477697 Z M3.27084559,13.8735364 L3.73107633,14.1968713 L3.10300695,16.1184542 L3.6502426,16.0065038 L7.61761418,15.1732211 C11.8462612,15.1421044 15.2353674,11.8649486 15.2353674,7.6177011 C15.2353674,3.40774142 11.8276608,3.47671953e-05 7.6177011,3.47671953e-05 C3.40774142,3.47671953e-05 3.47671953e-05,3.40774142 3.47671953e-05,7.6177011 C3.47671953e-05,10.1175494 1.2187988,12.4494721 3.27084559,13.8735364 Z" id="Fill-1" fill="#C9C9C9" mask="url(#mask-2)"></path>
            </g>
        </g>
    </g>
</svg>