<?xml version="1.0" encoding="UTF-8"?>
<svg width="17px" height="19px" viewBox="0 0 17 19" version="1.1" xmlns="http://www.w3.org/2000/svg" xmlns:xlink="http://www.w3.org/1999/xlink">
    <!-- Generator: sketchtool 52.6 (67491) - http://www.bohemiancoding.com/sketch -->
    <title>E57675F4-BAD5-4D3D-838B-410D167E29FE</title>
    <desc>Created with sketchtool.</desc>
    <defs>
        <polygon id="path-1" points="0 0.045770152 15.7409988 0.045770152 15.7409988 16.6227449 0 16.6227449"></polygon>
    </defs>
    <g id="Symbols" stroke="none" stroke-width="1" fill="none" fill-rule="evenodd">
        <g id="step/outline/on">
            <g id="Group-10">
                <g id="Group-3" transform="translate(0.000000, 0.036537)">
                    <mask id="mask-2" fill="white">
                        <use xlink:href="#path-1"></use>
                    </mask>
                    <g id="Clip-2"></g>
                    <path d="M1.31665306,7.91622839 C1.31665306,10.0635249 2.36857656,12.0754531 4.13363228,13.3004342 L4.56927986,13.606556 C4.80611283,13.7729481 4.90650762,14.0745439 4.81656376,14.3497244 L4.57495792,15.0890251 L7.73517214,14.4252674 C7.77812794,14.4162154 7.82182437,14.4115248 7.86568537,14.4111956 C11.5434265,14.3842043 14.4243457,11.5312639 14.4243457,7.91622839 C14.4243457,4.3024272 11.4843417,1.36242321 7.87054053,1.36242321 C4.25673934,1.36242321 1.31665306,4.3024272 1.31665306,7.91622839 M3.10491478,16.4026334 C2.94880911,16.2276008 2.89762422,15.9827856 2.97045159,15.7598598 L3.41366993,14.4037072 L3.3798484,14.3798428 C1.26349319,12.9112809 0,10.4948934 0,7.91622839 C0,3.57645762 3.53068747,0.045770152 7.87054053,0.045770152 C12.2103113,0.045770152 15.7409988,3.57645762 15.7409988,7.91622839 C15.7409988,12.242092 12.3212393,15.6606171 7.94262729,15.7270258 L4.2462884,16.5034396 L3.72818543,16.6094302 C3.68424213,16.6183999 3.64005196,16.6227613 3.59619096,16.6227613 C3.41062517,16.6227613 3.23123119,16.5441736 3.10491478,16.4026334" id="Fill-1" fill="#FF3B94" mask="url(#mask-2)"></path>
                </g>
                <path d="M4.48139327,4.3215269 C3.8484946,4.3215269 3.33351867,4.83650283 3.33351867,5.46948378 C3.33351867,6.10246474 3.8484946,6.61735838 4.48139327,6.61735838 C5.11437422,6.61735838 5.62935015,6.10246474 5.62935015,5.46948378 C5.62935015,4.83650283 5.11437422,4.3215269 4.48139327,4.3215269" id="Fill-4" fill="#FF3B94"></path>
                <path d="M4.76418566,8.53696448 L4.76418566,8.61925529 C4.76418566,9.63209066 5.5881636,10.4559863 6.60091667,10.4559863 C7.61375204,10.4559863 8.43772998,9.63209066 8.43772998,8.61925529 L8.43772998,8.53696448 L4.76418566,8.53696448 Z" id="Fill-6" fill="#FF3B94"></path>
                <path d="M9.55128108,5.86290795 L8.87764845,5.47556507 L9.55687685,5.08262643 C9.66640593,5.02222497 9.74556969,4.92183017 9.77980267,4.80003977 C9.81444711,4.67660354 9.79807123,4.54230493 9.73536563,4.43252898 C9.67488188,4.3229999 9.57456938,4.24375385 9.45277897,4.20960316 C9.32950733,4.17504102 9.19504413,4.19141689 9.08395153,4.25478082 L7.68961594,5.05818606 C7.58008687,5.11866981 7.50084081,5.21898231 7.46669012,5.34077272 C7.43204569,5.46420894 7.44842156,5.59858985 7.50956364,5.70523874 C7.54700596,5.78012339 7.60748971,5.84110088 7.68813471,5.88594938 L9.07753285,6.6903421 C9.15003106,6.73181667 9.2302646,6.75140189 9.30983982,6.7513196 C9.47680789,6.7513196 9.64138952,6.6652434 9.72812404,6.51349914 C9.79050048,6.40438152 9.80630032,6.27609013 9.77264337,6.15207787 C9.73898643,6.02790103 9.66031641,5.92520209 9.55128108,5.86290795" id="Fill-8" fill="#FF3B94"></path>
            </g>
        </g>
    </g>
</svg>