<?xml version="1.0" encoding="UTF-8"?>
<svg width="33px" height="33px" viewBox="0 0 33 33" version="1.1" xmlns="http://www.w3.org/2000/svg" xmlns:xlink="http://www.w3.org/1999/xlink">
    <!-- Generator: sketchtool 52.6 (67491) - http://www.bohemiancoding.com/sketch -->
    <title>CCA1CA35-655C-4B59-9596-2F0FFCA2FD23</title>
    <desc>Created with sketchtool.</desc>
    <defs>
        <polygon id="path-1" points="2.19059335e-05 0.0722587754 31.9080733 0.0722587754 31.9080733 30.9832047 2.19059335e-05 30.9832047"></polygon>
    </defs>
    <g id="Symbols" stroke="none" stroke-width="1" fill="none" fill-rule="evenodd">
        <g id="facebook_circle">
            <g id="facebook" transform="translate(0.696679, 0.463793)">
                <g id="Group-3" transform="translate(0.000000, 0.033848)">
                    <mask id="mask-2" fill="white">
                        <use xlink:href="#path-1"></use>
                    </mask>
                    <g id="Clip-2"></g>
                    <path d="M15.9540038,0.0722587754 C24.7656655,0.0722587754 31.9080952,6.99244244 31.9080952,15.5277848 C31.9080952,24.0640821 24.7656655,30.9832047 15.9540038,30.9832047 C7.14234201,30.9832047 2.19059335e-05,24.063976 2.19059335e-05,15.5277848 C2.19059335e-05,6.99244244 7.14245153,0.0722587754 15.9540038,0.0722587754" id="Fill-1" fill="#3B5998" mask="url(#mask-2)"></path>
                </g>
                <path d="M18.2847184,9.79037438 L20.7514361,9.79037438 L20.7514361,6.26030507 L17.8516381,6.26030507 L17.8516381,6.27303789 C14.3381454,6.39357529 13.6179879,8.30689429 13.5544607,10.3164522 L13.5473412,10.3164522 L13.5473412,12.0792056 L11.1547752,12.0792056 L11.1547752,15.5361673 L13.5473412,15.5361673 L13.5473412,24.8027981 L17.1529484,24.8027981 L17.1529484,15.5361673 L20.1066349,15.5361673 L20.677175,12.0792056 L17.1541532,12.0792056 L17.1541532,11.014211 C17.1541532,10.3350209 17.6207496,9.79037438 18.2847184,9.79037438" id="Fill-4" fill="#FFFFFF"></path>
            </g>
        </g>
    </g>
</svg>