<?xml version="1.0" encoding="UTF-8"?>
<svg width="33px" height="33px" viewBox="0 0 33 33" version="1.1" xmlns="http://www.w3.org/2000/svg" xmlns:xlink="http://www.w3.org/1999/xlink">
    <!-- Generator: sketchtool 52.6 (67491) - http://www.bohemiancoding.com/sketch -->
    <title>9F85391E-5D61-4306-9323-73F1F507DA54</title>
    <desc>Created with sketchtool.</desc>
    <defs>
        <polygon id="path-1" points="2.8251924e-05 0.220047173 31.6975286 0.220047173 31.6975286 30.927028 2.8251924e-05 30.927028"></polygon>
    </defs>
    <g id="Symbols" stroke="none" stroke-width="1" fill="none" fill-rule="evenodd">
        <g id="google">
            <g transform="translate(0.542739, 0.463793)">
                <g id="Group-3" transform="translate(0.000000, 0.053643)">
                    <mask id="mask-2" fill="white">
                        <use xlink:href="#path-1"></use>
                    </mask>
                    <g id="Clip-2"></g>
                    <path d="M15.8487926,0.220047173 C24.6018037,0.220047173 31.6975569,7.09405811 31.6975569,15.5735376 C31.6975569,24.0530171 24.6018037,30.927028 15.8487926,30.927028 C7.09578148,30.927028 2.8251924e-05,24.0530171 2.8251924e-05,15.5735376 C2.8251924e-05,7.09405811 7.09578148,0.220047173 15.8487926,0.220047173" id="Fill-1" fill="#DC4E41" mask="url(#mask-2)"></path>
                </g>
                <path d="M5.51782677,16.3145273 C5.46160544,18.9559144 7.33979335,21.4768778 9.9234318,22.2990441 C12.3570525,23.0913781 15.3492138,22.4988381 16.9686141,20.4798232 C18.1509571,19.065117 18.4196329,17.1788419 18.2916517,15.4170961 C16.2075072,15.3990325 14.1233628,15.4050537 12.0423261,15.4077906 C12.0389359,16.1270493 12.0423261,16.8438448 12.0454338,17.5631034 C13.2933213,17.5964937 14.5414913,17.581167 15.7893788,17.6055255 C15.4743698,18.6512969 14.756771,19.6245404 13.6676593,20.0022333 C11.5648686,20.8999382 8.88178336,19.7271743 8.2201233,17.5899251 C7.42144141,15.5438148 8.72894045,13.0743053 10.88767,12.4790284 C12.2262461,12.0225127 13.6052225,12.5365035 14.7505555,13.2106032 C15.33085,12.68457 15.873852,12.1224097 16.4072484,11.5539545 C15.1059647,10.4991513 13.4337334,9.85269428 11.7146038,9.99473965 C8.34160657,10.0336037 5.38984555,13.0502205 5.51782677,16.3145273" id="Fill-4" fill="#DC4E41"></path>
                <path d="M22.3477239,13.5939341 C22.341791,14.1955059 22.3350105,14.8000882 22.3319028,15.4013863 C21.7078178,15.4074075 21.0871231,15.4104181 20.4664283,15.4134287 L20.4664283,17.2148596 C21.0871231,17.2178702 21.7112081,17.2208808 22.3319028,17.2271757 C22.3384008,17.8287474 22.3384008,18.4300455 22.3443337,19.0346278 C22.9624858,19.0346278 23.5831805,19.0316172 24.2038753,19.0346278 C24.2072655,18.4300455 24.2103733,17.8287474 24.2165887,17.2241651 C24.837566,17.2211545 25.4613684,17.2181439 26.0826283,17.2151333 L26.0826283,15.4137023 C25.461651,15.4106917 24.837566,15.4076812 24.2165887,15.40166 C24.213481,14.8000882 24.2072655,14.1955059 24.2038753,13.5942078 C23.5831805,13.5939341 22.9655935,13.5939341 22.3477239,13.5939341" id="Fill-6" fill="#DC4E41"></path>
                <path d="M5.51782677,16.3145273 C5.38984555,13.0502205 8.34132405,10.0336037 11.7143213,9.99446596 C13.4334508,9.85242058 15.1059647,10.4988776 16.4069658,11.5536808 C15.873287,12.1224097 15.330285,12.6842963 14.750273,13.2103295 C13.60494,12.5362298 12.2259636,12.022239 10.8873874,12.4784811 C8.72837541,13.0743053 7.42087637,15.5438148 8.21984078,17.5896514 C8.88150084,19.7269006 11.5645861,20.8996645 13.6673768,20.0019596 C14.7562059,19.6242667 15.4740873,18.6507495 15.7890963,17.6052518 C14.5412088,17.581167 13.2930388,17.59622 12.0451513,17.5628297 C12.0420436,16.8435711 12.0389359,16.1267756 12.0420436,15.4077906 C14.1230803,15.40478 16.2072247,15.3987588 18.2913692,15.4168224 C18.4196329,17.1788419 18.1509571,19.065117 16.9683316,20.4795495 C15.3489313,22.4985645 12.3570525,23.0911044 9.92314928,22.2987704 C7.34007587,21.4768778 5.46160544,18.9559144 5.51782677,16.3145273" id="Fill-8" fill="#FFFFFF"></path>
                <path d="M22.3477239,13.5939341 L24.2038753,13.5939341 C24.2072655,14.1955059 24.213481,14.8000882 24.2165887,15.4013863 C24.837566,15.4074075 25.4613684,15.4104181 26.0826283,15.4134287 L26.0826283,17.2148596 C25.461651,17.2178702 24.837566,17.2208808 24.2165887,17.2238914 C24.2106558,17.8284737 24.2072655,18.4297718 24.2038753,19.0343541 C23.5831805,19.0313436 22.9622032,19.0343541 22.3443337,19.0343541 C22.3386833,18.4297718 22.3386833,17.8284737 22.3319028,17.226902 C21.7112081,17.2206071 21.0871231,17.2178702 20.4664283,17.2145859 L20.4664283,15.413155 C21.0871231,15.4101444 21.7081003,15.4071338 22.3319028,15.4011126 C22.3350105,14.8000882 22.3415085,14.1955059 22.3477239,13.5939341" id="Fill-10" fill="#FFFFFF"></path>
            </g>
        </g>
    </g>
</svg>