<?xml version="1.0" encoding="UTF-8"?>
<svg width="21px" height="21px" viewBox="0 0 21 21" version="1.1" xmlns="http://www.w3.org/2000/svg" xmlns:xlink="http://www.w3.org/1999/xlink">
    <!-- Generator: sketchtool 52.5 (67469) - http://www.bohemiancoding.com/sketch -->
    <title>932CB965-890E-4F49-907B-045C7CFD4BDF</title>
    <desc>Created with sketchtool.</desc>
    <defs>
        <polygon id="path-1" points="0 0 19.55429 0 19.55429 19.55429 0 19.55429"></polygon>
    </defs>
    <g id="user4" stroke="none" stroke-width="1" fill="none" fill-rule="evenodd">
        <g id="user_main04" transform="translate(-1237.000000, -3301.000000)">
            <g id="facebook" transform="translate(1237.000000, 3301.000000)">
                <g id="Group-3" transform="translate(0.828466, 0.686323)">
                    <mask id="mask-2" fill="white">
                        <use xlink:href="#path-1"></use>
                    </mask>
                    <g id="Clip-2"></g>
                    <path d="M16.9192432,0 L2.634999,0 C1.1797582,0 0,1.1797017 0,2.63497966 L0,16.9192147 C0,18.3744926 1.17971036,19.5541943 2.634999,19.5541943 L9.67992006,19.5541943 L9.69192668,12.5665832 L7.87653507,12.5665832 C7.64061214,12.5665832 7.44912805,12.375818 7.44821918,12.1398968 L7.43951318,9.88749987 C7.43860432,9.65028712 7.63066243,9.4575129 7.86787691,9.4575129 L9.6799679,9.4575129 L9.6799679,7.28112542 C9.6799679,4.75544826 11.2225078,3.38019792 13.475591,3.38019792 L15.3244194,3.38019792 C15.5609642,3.38019792 15.7527831,3.57196761 15.7527831,3.80855851 L15.7527831,5.70779119 C15.7527831,5.94428641 15.5611077,6.13600827 15.3246586,6.13615177 L14.1900568,6.13667796 C12.9647595,6.13667796 12.7274972,6.71892308 12.7274972,7.57339601 L12.7274972,9.45756073 L15.4198984,9.45756073 C15.6764382,9.45756073 15.8754803,9.68157108 15.8452485,9.93633919 L15.5782805,12.1887362 C15.5527366,12.4042797 15.3699585,12.5666789 15.1529304,12.5666789 L12.7395038,12.5666789 L12.7274972,19.55429 L16.9193388,19.55429 C18.3745796,19.55429 19.55429,18.3745883 19.55429,16.9193582 L19.55429,2.63497966 C19.5542422,1.1797017 18.3745318,0 16.9192432,0" id="Fill-1" fill="#9B9B9B" mask="url(#mask-2)"></path>
                </g>
            </g>
        </g>
    </g>
</svg>