<?xml version="1.0" encoding="UTF-8"?>
<svg width="116px" height="42px" viewBox="0 0 116 42" version="1.1" xmlns="http://www.w3.org/2000/svg" xmlns:xlink="http://www.w3.org/1999/xlink">
    <!-- Generator: sketchtool 52.5 (67469) - http://www.bohemiancoding.com/sketch -->
    <title>B1354D5D-57C3-4F68-B123-83933194F819</title>
    <desc>Created with sketchtool.</desc>
    <g id="Symbols" stroke="none" stroke-width="1" fill="none" fill-rule="evenodd">
        <g id="logo_pink" fill="#FF3B94">
            <g id="Group-15" transform="translate(0.145575, 0.500000)">
                <path d="M16.7131432,20.0842332 C15.431272,18.9985062 13.3605977,18.1597754 10.4025859,17.5675126 C9.07144757,17.2713812 7.98677719,16.9753819 7.29650839,16.7286498 C6.50770524,16.3831192 6.16257084,16.0871198 6.01476932,15.8896549 C5.81756853,15.6430548 5.71903418,15.2976563 5.71903418,14.8533271 C5.71903418,14.5079285 5.81756853,14.0145964 6.6062396,13.5705314 C7.29650839,13.2250007 8.23337724,13.0275358 9.36731479,13.0275358 C10.3533187,13.0275358 11.191257,13.1263343 11.8815258,13.3729343 C12.5717946,13.6197985 13.2126641,14.0145964 13.8043986,14.5573278 C14.4452681,15.1495906 15.1848041,15.4455899 15.9734751,15.4455899 C16.5159424,15.4455899 17.0088783,15.2976563 17.403412,15.0015249 C17.9456151,14.5573278 18.2413502,14.0145964 18.2413502,13.4223336 C18.2413502,12.8796021 18.0441494,12.3367386 17.6004807,11.8432744 C16.7624104,10.8070787 15.6284728,10.017483 14.1988001,9.42535232 C12.8183946,8.83308953 11.191257,8.5863574 9.41658197,8.5863574 C7.98677719,8.5863574 6.6062396,8.83308953 5.32450052,9.27728662 C3.99336218,9.77075088 2.95795898,10.461548 2.12002074,11.4484765 C1.28181833,12.4355371 0.838149577,13.6197985 0.838149577,15.0509241 C0.838149577,18.505174 3.50042625,20.7256311 8.77558034,21.7619589 C10.6490539,22.1073574 11.9801922,22.5515545 12.7197282,23.0450188 C13.4098649,23.4890838 13.7056,24.0319473 13.7056,24.6734773 C13.7056,25.3644065 13.4098649,25.8578707 12.7197282,26.2525365 C11.9801922,26.6967336 10.8955218,26.9434657 9.51511632,26.9434657 C8.4798452,26.9434657 7.44444201,26.7461328 6.50770524,26.3512029 C5.62036774,25.9071379 4.93009894,25.4630729 4.48643019,24.9202094 C3.45115908,23.9332809 2.26782227,23.7853472 0.986083189,24.7227444 C0.345081566,25.2162087 7.92501491e-05,25.8578707 7.92501491e-05,26.6473343 C7.92501491e-05,27.239465 0.197147954,27.7823285 0.640816706,28.2265256 C1.57755347,29.1640549 2.90869181,29.9536505 4.53569737,30.496382 C6.16257084,31.0391134 7.88824284,31.3353769 9.71231711,31.3353769 C11.5365235,31.3353769 13.1633969,31.0391134 14.4945353,30.4469827 C15.8256736,29.8549841 16.9102119,29.0159892 17.6004807,27.9302621 C18.2907495,26.8447993 18.6851511,25.6604058 18.6851511,24.3773459 C18.6851511,22.6502209 17.9948823,21.2192274 16.7131432,20.0842332" id="Fill-1"></path>
                <path d="M33.0810595,26.9928253 C32.6373908,26.4993611 32.1443228,26.3020282 31.5034532,26.3020282 L30.1723149,26.3020282 C29.4820461,26.3020282 28.8904437,26.0057647 28.446775,25.413634 C27.953839,24.7722361 27.707239,24.0319077 27.707239,23.0943784 L27.707239,13.866491 L30.5667165,13.866491 C31.2568532,13.866491 31.7993205,13.6691582 32.2429892,13.2743603 C32.686658,12.8795625 32.933258,12.336699 32.933258,11.7447004 C32.933258,11.1030383 32.686658,10.5109076 32.2429892,10.1162419 C31.7993205,9.721312 31.2568532,9.52397913 30.5667165,9.52397913 L27.707239,9.52397913 L27.707239,4.2933372 C27.707239,3.60240799 27.460771,3.01027729 27.0171023,2.51668094 C26.5733015,2.07261594 25.9816991,1.82588381 25.2421631,1.82588381 C24.5520264,1.82588381 23.960292,2.07261594 23.467356,2.51668094 C23.0235552,2.96087803 22.7770872,3.55300873 22.7770872,4.2933372 L22.7770872,9.47457987 L21.4459489,9.47457987 C20.7558122,9.47457987 20.213477,9.67204482 19.7698082,10.0668426 C19.3260074,10.4616405 19.0795394,11.0043719 19.0795394,11.6953011 C19.0795394,12.2874318 19.3260074,12.8301633 19.7698082,13.2250932 C20.213477,13.6197589 20.7558122,13.8170918 21.4459489,13.8170918 L22.7770872,13.8170918 L22.7770872,23.0449791 C22.7770872,24.5747712 23.1223537,25.9564975 23.713824,27.1901582 C24.3548256,28.4238189 25.2421631,29.4108795 26.3761007,30.1016766 C27.5100382,30.841873 28.7917773,31.1872715 30.1723149,31.1872715 L30.8624516,31.1872715 C31.6513868,31.1872715 32.3415236,30.9405394 32.8345916,30.4963423 C33.3767947,30.0522773 33.6726619,29.4108795 33.6726619,28.7199502 C33.7220612,28.0784203 33.5247283,27.4861575 33.0810595,26.9928253" id="Fill-3"></path>
                <path d="M38.1590525,8.68505026 C37.4687837,8.68505026 36.8773134,8.93178239 36.3842454,9.37584739 C35.8911774,9.82004448 35.6447094,10.4615744 35.6447094,11.2017708 L35.6447094,28.7200163 C35.6447094,29.4108134 35.8911774,30.0523434 36.3348461,30.4964084 C36.8280462,30.9898726 37.4195165,31.2366048 38.1097853,31.2366048 C38.8493213,31.2366048 39.4409236,30.9898726 39.9339916,30.4964084 C40.3776604,30.002812 40.6241283,29.4108134 40.6241283,28.7200163 L40.6241283,11.2017708 C40.6241283,10.4615744 40.3776604,9.86944373 39.9339916,9.37584739 C39.539458,8.93178239 38.8987205,8.68505026 38.1590525,8.68505026" id="Fill-5"></path>
                <path d="M38.1590525,5.28334327e-05 C37.3209821,5.28334327e-05 36.5814462,0.29605214 35.9898438,0.888314921 C35.3982414,1.48044562 35.1023742,2.22064201 35.1023742,3.05950484 C35.1023742,3.89849975 35.3982414,4.63869614 35.9898438,5.23082684 C36.5814462,5.82295754 37.3209821,6.11908893 38.1590525,6.11908893 C38.9972549,6.11908893 39.7366588,5.82295754 40.3283932,5.23082684 C40.9198635,4.63869614 41.2158628,3.89849975 41.2158628,3.05950484 C41.2158628,2.22064201 40.9198635,1.48044562 40.3283932,0.888314921 C39.7366588,0.29605214 38.9972549,5.28334327e-05 38.1590525,5.28334327e-05" id="Fill-7"></path>
                <path d="M61.1334726,19.9855536 C61.1334726,21.2686135 60.8377374,22.4528749 60.246003,23.4890706 C59.6544006,24.5253983 58.8655975,25.3643933 57.9288607,25.956524 C56.9427247,26.5485226 55.8583185,26.844786 54.6255824,26.844786 C53.3931105,26.844786 52.3085722,26.5485226 51.3225683,25.956524 C50.3365643,25.3643933 49.5476291,24.5253983 49.005426,23.4890706 C48.4629587,22.4528749 48.1672236,21.2686135 48.1672236,19.9855536 C48.1672236,18.7024936 48.4629587,17.468833 49.005426,16.4326373 C49.5476291,15.3963095 50.3365643,14.5573146 51.3225683,13.9651839 C52.3085722,13.3730532 53.3931105,13.0769218 54.6255824,13.0769218 C55.8583185,13.0769218 56.9427247,13.3730532 57.9288607,13.9651839 C58.9148646,14.5573146 59.7037999,15.3963095 60.246003,16.4326373 C60.8377374,17.468833 61.1334726,18.7024936 61.1334726,19.9855536 M60.3939366,10.066737 C58.6683967,9.07994054 56.6962567,8.5863442 54.6255824,8.5863442 C52.505773,8.5863442 50.5830323,9.07994054 48.9067596,10.066737 C47.1812196,11.0537976 45.8500813,12.4355239 44.8146781,14.1625168 C43.8286742,15.8896417 43.3357382,17.8636308 43.3357382,19.9855536 L43.3357382,37.9477319 C43.3357382,38.6880604 43.5822062,39.280059 44.0752742,39.7735233 C44.5682101,40.2177204 45.1598125,40.4644525 45.8500813,40.4644525 C46.5896173,40.4644525 47.1812196,40.2177204 47.6742877,39.7735233 C48.1179564,39.3294583 48.3644244,38.6880604 48.3644244,37.9477319 L48.3644244,28.571911 C49.1532275,29.3119753 50.0406971,29.9042381 50.9773018,30.3977023 C52.3578394,31.0392323 53.8369113,31.3846308 55.4145176,31.3846308 C57.3865255,31.3846308 59.2105998,30.8911666 60.7883382,29.9042381 C62.4152116,28.9173095 63.6478156,27.5355832 64.5845524,25.8084583 C65.472022,24.0813333 65.9649579,22.1073442 65.9649579,19.9855536 C65.9649579,17.8636308 65.472022,15.8896417 64.4858859,14.1625168 C63.499882,12.4355239 62.1194765,11.0537976 60.3939366,10.066737" id="Fill-9"></path>
                <path d="M110.089526,19.9855536 C110.089526,21.2686135 109.793791,22.4528749 109.202056,23.4890706 C108.610454,24.5253983 107.821651,25.3643933 106.884914,25.956524 C105.89891,26.5485226 104.814372,26.844786 103.581636,26.844786 C102.349164,26.844786 101.264625,26.5485226 100.278621,25.956524 C99.2926175,25.3643933 98.5036822,24.5253983 97.9614791,23.4890706 C97.4190119,22.4528749 97.1232767,21.2686135 97.1232767,19.9855536 C97.1232767,18.7024936 97.4190119,17.468833 97.9614791,16.4326373 C98.5036822,15.3963095 99.2926175,14.5573146 100.278621,13.9651839 C101.264625,13.3730532 102.349164,13.0769218 103.581636,13.0769218 C104.814372,13.0769218 105.89891,13.3730532 106.884914,13.9651839 C107.870918,14.5573146 108.659853,15.3963095 109.202056,16.4326373 C109.843058,17.468833 110.089526,18.7024936 110.089526,19.9855536 M113.491338,14.1625168 C112.505202,12.4355239 111.124797,11.0537976 109.399257,10.0174698 C107.673717,9.03054128 105.701709,8.53707702 103.631167,8.53707702 C101.511093,8.53707702 99.5883526,9.03054128 97.912212,10.0174698 C96.18654,11.0043983 94.8554016,12.3861247 93.8201305,14.1132496 C92.8339945,15.8403745 92.3410586,17.8143636 92.3410586,19.9361543 L92.3410586,37.8984648 C92.3410586,38.6386612 92.5875265,39.2307918 93.0805945,39.7242561 C93.5736625,40.1684532 94.1651328,40.4151853 94.8554016,40.4151853 C95.5949376,40.4151853 96.18654,40.1684532 96.679608,39.7242561 C97.1232767,39.280059 97.3697447,38.6386612 97.3697447,37.8984648 L97.3697447,28.5225117 C98.1586799,29.2627081 99.0461495,29.8549709 99.9827542,30.3483031 C101.363292,30.989833 102.842232,31.3353637 104.419838,31.3353637 C106.391978,31.3353637 108.216052,30.8417673 109.793791,29.8549709 C111.371265,28.8679103 112.653136,27.4861839 113.589873,25.759059 C114.477342,24.0319341 114.970278,22.058077 114.970278,19.9361543 C114.970278,17.8636308 114.477342,15.8896417 113.491338,14.1625168" id="Fill-11"></path>
                <path d="M79.1815845,26.8449974 C75.388144,26.8449974 72.3132383,23.7699595 72.3132383,19.9766511 C72.3132383,16.1833427 75.388144,13.1083049 79.1815845,13.1083049 C82.9748929,13.1083049 86.0499308,16.1833427 86.0499308,19.9766511 C86.0499308,23.7699595 82.9748929,26.8449974 79.1815845,26.8449974 M79.1815845,8.5514213 C72.8715556,8.5514213 67.7563547,13.6667543 67.7563547,19.9766511 C67.7563547,26.286548 72.8715556,31.401881 79.1815845,31.401881 C85.4913493,31.401881 90.6068143,26.286548 90.6068143,19.9766511 C90.6068143,13.6667543 85.4913493,8.5514213 79.1815845,8.5514213" id="Fill-13"></path>
            </g>
        </g>
    </g>
</svg>